<?xml version="1.0" encoding="utf-8"?>
<!-- Generator: Adobe Illustrator 24.0.2, SVG Export Plug-In . SVG Version: 6.00 Build 0)  -->
<svg version="1.1" id="圖層_1" xmlns="http://www.w3.org/2000/svg" xmlns:xlink="http://www.w3.org/1999/xlink" x="0px" y="0px"
	 viewBox="0 0 795 300" style="enable-background:new 0 0 795 300;" xml:space="preserve">
<style type="text/css">
	.st0{fill:#FFFFFF;}
</style>
<g id="圖層_1_1_">
	<g>
		<g>
			<path class="st0" d="M312.98,58.5c0.65,0,1.17,0.13,1.82,0.13c1.04,0.13-1.69-0.26-0.39,0c0.39,0,0.78,0.13,1.17,0.26
				c0.78,0.13,1.56,0.39,2.34,0.65c0.39,0.13,0.78,0.26,1.17,0.39c0.26,0.13,0.39,0.13,0.65,0.26c-1.82-0.65-0.65-0.26-0.26-0.13
				c0.91,0.39,1.82,0.91,2.74,1.56c0.26,0.13,0.39,0.26,0.65,0.52c-1.43-1.04-0.52-0.39-0.26-0.13c0.39,0.39,0.78,0.78,1.17,1.17
				c0.26,0.26,0.39,0.39,0.52,0.65c0.26,0.39,0.78,1.3-0.13-0.13c0.26,0.52,0.65,1.04,1.04,1.56c0.13,0.39,0.39,0.65,0.52,1.04
				c0.13,0.13,0.13,0.26,0.26,0.39c0.39,0.91-0.39-1.17-0.13-0.39s0.52,1.43,0.65,2.21c0.13,0.39,0.13,0.78,0.26,1.17
				c0,0.13,0.13,0.39,0.13,0.52c0.13,0.91,0.13,0,0-0.39c0.26,0.91,0.13,2.21,0.13,3c0,2.61,2.21,4.95,4.95,4.95
				c2.61-0.13,4.95-2.08,4.95-4.95c0-6.77-2.34-13.81-7.82-18.24c-3.65-2.87-7.95-4.82-12.51-5.47c-1.17-0.13-2.48-0.39-3.65-0.39
				c-2.61,0-4.95,2.21-4.95,4.95C308.16,56.15,310.24,58.5,312.98,58.5L312.98,58.5z"/>
		</g>
	</g>
	<path class="st0" d="M210.33,44.43c0,0,45.2,9.12,45.2-10.03s-30.48-16.54-30.48-16.54L210.33,44.43"/>
	<g>
		<g>
			<path class="st0" d="M526.22,249.34c11.2-5.6,22.41-11.2,33.61-16.8c1.56-0.78,3.13-1.56,4.82-2.34c2.34-1.17,3-4.56,1.69-6.64
				c-1.43-2.34-4.3-3-6.64-1.69c-11.2,5.6-22.41,11.2-33.61,16.8c-1.56,0.78-3.13,1.56-4.82,2.34c-2.34,1.17-3,4.56-1.69,6.64
				C520.88,249.99,523.75,250.51,526.22,249.34L526.22,249.34z"/>
		</g>
	</g>
	<g>
		<g>
			<path class="st0" d="M533.26,259.63c11.2,0,22.41,0,33.61,0c1.56,0,3.13,0,4.69,0c6.25,0,6.25-9.77,0-9.77
				c-11.2,0-22.41,0-33.61,0c-1.56,0-3.13,0-4.69,0C527.01,249.86,527.01,259.63,533.26,259.63L533.26,259.63z"/>
		</g>
	</g>
	<g>
		<g>
			<path class="st0" d="M436.21,230.84c-16.8,5.6-33.61,11.2-50.28,16.8c-2.34,0.78-4.69,1.56-7.16,2.34
				c-5.99,1.95-3.39,11.46,2.61,9.38c16.8-5.6,33.61-11.2,50.28-16.8c2.34-0.78,4.69-1.56,7.16-2.34
				C444.68,238.27,442.2,228.89,436.21,230.84L436.21,230.84z"/>
		</g>
	</g>
	<g>
		<g>
			<path class="st0" d="M437.51,269.01c-11.2,0-22.41,0-33.61,0c-1.56,0-3.13,0-4.69,0c-6.25,0-6.25,9.77,0,9.77
				c11.2,0,22.41,0,33.61,0c1.56,0,3.13,0,4.69,0C443.77,278.78,443.77,269.01,437.51,269.01L437.51,269.01z"/>
		</g>
	</g>
	<path class="st0" d="M466.17,245.17L466.17,245.17h38.3l-15.89,15.89c-1.82,1.82-4.69,1.82-6.51,0L466.17,245.17z"/>
</g>
<g id="圖層_2_1_">
	<g>
		<g>
			<path class="st0" d="M182.32,337.4c-4.3-5.08,8.08-22.15,10.68-26.05c9.64-14.85,20.84-28.66,32.31-42.21
				c20.45-24.23,42.08-47.42,64.22-70.08c1.95-1.95,4.17-5.34,6.64-6.77c2.48-1.43,6.77-0.78,10.68-3.26
				c11.33-7.56,14.46-31.52,10.42-43.51c-3.65-10.81-17.59-18.37-26.57-23.84c-15.63-9.38-32.18-17.2-48.72-24.62
				c-6.12-2.74-13.55-4.69-19.28-8.34c-5.6-3.52-7.03-7.56-8.34-14.98c-3.26-18.37,1.69-39.47,7.56-57.19
				c-1.95,1.17-4.04,2.21-5.99,3.39c10.29,3.39,20.71,6.64,31.13,9.64c13.42,3.78,30.35,10.55,44.55,9.64
				c11.72-0.78,24.1-8.34,35.82-10.94c26.18-5.86,54.97-4.69,77.64,10.81c16.41,11.2,28.01,28.92,34.78,47.42
				c3.13,8.47,2.21,16.93,2.21,26.05c0,25.01,0,50.02,0,75.03c0,2.61,2.21,4.95,4.95,4.95c19.15,0,38.3,0,57.45,0
				c1.69,0,3.52-0.91,4.17-2.48c6.38-12.77,12.77-25.53,19.15-38.3c-3-0.39-5.99-0.78-8.99-1.17c8.99,27.1,17.2,54.58,24.62,82.07
				c5.47,20.32,10.55,40.9,14.2,61.62c1.69,9.64,8.34,34.26,0.78,42.99c-4.17,4.69,2.74,11.72,6.9,6.9
				c8.08-9.25,5.47-25.14,4.17-36.21c-2.61-22.02-7.82-43.64-13.29-65c-8.21-32.05-17.59-63.83-28.01-95.1
				c-1.17-3.65-6.9-5.21-8.99-1.17c-3.91,7.82-7.82,15.63-11.72,23.45c-1.43,2.87-6.12,9.12-6.25,12.51c-0.13,3,4.3,1.3-0.39-0.13
				c-8.21-2.48-21.49,0-30.09,0c-7.95,0-16.02,0-23.97,0c1.56,1.56,3.26,3.26,4.95,4.95c0-23.71,0-47.29,0-71
				c0-7.95,1.17-16.93,0-24.88c-2.48-16.28-14.2-34.26-24.88-46.38c-19.02-21.49-46.64-31.26-74.9-30.35
				c-20.58,0.65-37.78,7.82-57.06,13.29c-9.64,3.13-23.19-2.08-34.26-4.95c-14.2-3.78-28.27-8.08-42.08-12.64
				c-2.61-0.91-5.21,1.04-5.99,3.39c-6.77,20.84-19.67,68,3.78,82.72c10.29,6.38,23.58,10.03,34.52,15.24
				c16.54,7.82,34.13,15.89,48.46,27.36c7.43,5.99,9.25,9.12,8.86,18.89c-0.26,5.73,0.13,14.85-3.78,19.67
				c-5.34,6.51-9.51,2.87-13.94,6.51c-5.73,4.56-10.68,10.94-15.76,16.15c-23.97,25.01-47.68,50.54-69.17,77.64
				c-9.64,12.11-44.68,48.85-29.83,66.18C179.45,349.13,186.36,342.22,182.32,337.4L182.32,337.4z"/>
		</g>
	</g>
	<g>
		<g>
			<path class="st0" d="M365.74,71.4c-2.74,16.54-4.82,33.35-6.38,50.02c-2.21,23.84-5.21,50.41,0.52,73.99
				c3.13,12.77,11.98,19.67,21.23,28.92c6.38,6.38,12.77,12.77,19.28,19.28c1.56,1.56,3.39,3.13,4.82,4.82
				c-0.78-1.04-0.78-4.43-1.17-1.95c-1.69,9.64,0,21.49,0,31.26c0,8.34,0,16.54,0,24.88c1.17-1.56,2.34-3.13,3.65-4.69
				c-13.55,2.74-102,20.45-78.81,46.51c4.17,4.69,11.07-2.21,6.9-6.9c-6.38-7.16,33.87-19.8,38.43-21.1
				c11.85-3.52,23.84-6.51,36.08-8.99c2.08-0.39,3.65-2.74,3.65-4.69c0-17.98,2.08-37.26,0-55.1c-0.91-7.03-5.73-10.03-10.81-15.24
				c-7.29-7.29-14.46-14.46-21.75-21.75c-4.69-4.69-8.6-7.82-10.81-14.07c-7.56-21.75-3.52-49.89-1.43-72.3
				c1.56-16.8,3.52-33.48,6.25-50.15C376.16,67.88,366.78,65.27,365.74,71.4L365.74,71.4z"/>
		</g>
	</g>
	<g>
		<g>
			<path class="st0" d="M413.41,243.87c-5.6-22.41-11.2-44.81-16.8-67.22c-0.78-3.13-1.56-6.25-2.34-9.38
				c-2.34,1.82-4.82,3.65-7.16,5.47c7.43,3.65,14.98,7.03,22.67,10.03c11.72,4.69,24.49,9.64,37.26,9.77c6.25,0.13,6.25-9.64,0-9.77
				c-11.85-0.13-23.84-5.08-34.65-9.38c-6.9-2.74-13.68-5.73-20.32-9.12c-3.78-1.82-8.21,1.17-7.16,5.47
				c5.6,22.41,11.2,44.81,16.8,67.22c0.78,3.13,1.56,6.25,2.34,9.38C405.6,252.47,414.98,249.99,413.41,243.87L413.41,243.87z"/>
		</g>
	</g>
</g>
</svg>
